HIERARCHY
ROOT Hips
{
	OFFSET 0.000000 100.481300 0.000000
	CHANNELS 6 Xposition Yposition Zposition Xrotation Yrotation Zrotation
	JOINT Spine
	{
		OFFSET -0.279200 12.230698 -2.892100
		CHANNELS 3 Xrotation Yrotation Zrotation
		JOINT Spine1
		{
			OFFSET -0.325700 14.269203 -3.374200
			CHANNELS 3 Xrotation Yrotation Zrotation
			JOINT Spine2
			{
				OFFSET -0.372300 16.307602 -0.352600
				CHANNELS 3 Xrotation Yrotation Zrotation
				JOINT Neck
				{
					OFFSET -0.418800 17.814194 8.416900
					CHANNELS 3 Xrotation Yrotation Zrotation
					JOINT Head
					{
						OFFSET 0.000000 7.031097 3.806800
						CHANNELS 3 Xrotation Yrotation Zrotation
						JOINT HeadTop_End
						{
							OFFSET 0.000000 24.646606 12.978600
							CHANNELS 3 Xrotation Yrotation Zrotation
							End Site
							{
								OFFSET 0.000000 27.854965 0.000000
							}
						}
					}
				}
				JOINT LeftShoulder
				{
					OFFSET 16.952999 14.495407 -7.737500
					CHANNELS 3 Xrotation Yrotation Zrotation
					JOINT LeftArm
					{
						OFFSET 9.308998 -2.777710 0.208600
						CHANNELS 3 Xrotation Yrotation Zrotation
						JOINT LeftForeArm
						{
							OFFSET 29.972298 0.000000 0.000000
							CHANNELS 3 Xrotation Yrotation Zrotation
							JOINT LeftHand
							{
								OFFSET 26.026505 0.000000 0.000000
								CHANNELS 3 Xrotation Yrotation Zrotation
								JOINT LeftHandThumb1
								{
									OFFSET 12.240501 -7.147949 9.207150
									CHANNELS 3 Xrotation Yrotation Zrotation
									JOINT LeftHandThumb2
									{
										OFFSET 4.138618 -2.389435 2.389433
										CHANNELS 3 Xrotation Yrotation Zrotation
										JOINT LeftHandThumb3
										{
											OFFSET 2.726913 -1.574387 1.574386
											CHANNELS 3 Xrotation Yrotation Zrotation
											JOINT LeftHandThumb4
											{
												OFFSET 3.941010 -2.275345 2.275342
												CHANNELS 3 Xrotation Yrotation Zrotation
												End Site
												{
													OFFSET -0.005798 5.087799 0.009903
												}
											}
										}
									}
								}
								JOINT LeftHandIndex1
								{
									OFFSET 24.424698 -1.985611 5.953459
									CHANNELS 3 Xrotation Yrotation Zrotation
									JOINT LeftHandIndex2
									{
										OFFSET 6.426697 0.000000 0.000000
										CHANNELS 3 Xrotation Yrotation Zrotation
										JOINT LeftHandIndex3
										{
											OFFSET 5.337898 0.000000 0.000000
											CHANNELS 3 Xrotation Yrotation Zrotation
											JOINT LeftHandIndex4
											{
												OFFSET 4.409401 0.000000 0.000000
												CHANNELS 3 Xrotation Yrotation Zrotation
												End Site
												{
													OFFSET 0.000000 4.409363 0.014373
												}
											}
										}
									}
								}
								JOINT LeftHandMiddle1
								{
									OFFSET 23.810104 0.000000 0.000000
									CHANNELS 3 Xrotation Yrotation Zrotation
									JOINT LeftHandMiddle2
									{
										OFFSET 7.176498 0.000000 0.000000
										CHANNELS 3 Xrotation Yrotation Zrotation
										JOINT LeftHandMiddle3
										{
											OFFSET 6.774902 0.000000 0.000000
											CHANNELS 3 Xrotation Yrotation Zrotation
											JOINT LeftHandMiddle4
											{
												OFFSET 5.403328 0.000000 0.000000
												CHANNELS 3 Xrotation Yrotation Zrotation
												End Site
												{
													OFFSET -0.027702 5.403244 0.017414
												}
											}
										}
									}
								}
								JOINT LeftHandRing1
								{
									OFFSET 22.908401 -0.839279 -6.020567
									CHANNELS 3 Xrotation Yrotation Zrotation
									JOINT LeftHandRing2
									{
										OFFSET 6.337502 0.000000 0.000000
										CHANNELS 3 Xrotation Yrotation Zrotation
										JOINT LeftHandRing3
										{
											OFFSET 5.779297 0.000000 0.000000
											CHANNELS 3 Xrotation Yrotation Zrotation
											JOINT LeftHandRing4
											{
												OFFSET 4.965698 0.000000 0.000000
												CHANNELS 3 Xrotation Yrotation Zrotation
												End Site
												{
													OFFSET 0.000000 4.965668 0.016186
												}
											}
										}
									}
								}
								JOINT LeftHandPinky1
								{
									OFFSET 20.037003 -1.530319 -10.950146
									CHANNELS 3 Xrotation Yrotation Zrotation
									JOINT LeftHandPinky2
									{
										OFFSET 5.254700 0.000000 0.000000
										CHANNELS 3 Xrotation Yrotation Zrotation
										JOINT LeftHandPinky3
										{
											OFFSET 4.810204 0.000000 0.000000
											CHANNELS 3 Xrotation Yrotation Zrotation
											JOINT LeftHandPinky4
											{
												OFFSET 3.647202 0.000000 0.000000
												CHANNELS 3 Xrotation Yrotation Zrotation
												End Site
												{
													OFFSET 0.000000 3.647186 0.011889
												}
											}
										}
									}
								}
							}
						}
					}
				}
				JOINT RightShoulder
				{
					OFFSET -15.141001 14.495407 -7.737500
					CHANNELS 3 Xrotation Yrotation Zrotation
					JOINT RightArm
					{
						OFFSET -9.308998 -2.777710 0.208500
						CHANNELS 3 Xrotation Yrotation Zrotation
						JOINT RightForeArm
						{
							OFFSET -29.972300 0.000000 0.000000
							CHANNELS 3 Xrotation Yrotation Zrotation
							JOINT RightHand
							{
								OFFSET -26.026505 0.000000 0.000000
								CHANNELS 3 Xrotation Yrotation Zrotation
								JOINT RightHandThumb1
								{
									OFFSET -12.240601 -7.148026 9.207092
									CHANNELS 3 Xrotation Yrotation Zrotation
									JOINT RightHandThumb2
									{
										OFFSET -4.138618 -2.389435 2.389433
										CHANNELS 3 Xrotation Yrotation Zrotation
										JOINT RightHandThumb3
										{
											OFFSET -2.726974 -1.574417 1.574421
											CHANNELS 3 Xrotation Yrotation Zrotation
											JOINT RightHandThumb4
											{
												OFFSET -3.941010 -2.275345 2.275343
												CHANNELS 3 Xrotation Yrotation Zrotation
												End Site
												{
													OFFSET 0.005814 5.087799 0.009927
												}
											}
										}
									}
								}
								JOINT RightHandIndex1
								{
									OFFSET -24.424698 -1.985657 5.953444
									CHANNELS 3 Xrotation Yrotation Zrotation
									JOINT RightHandIndex2
									{
										OFFSET -6.426697 0.000000 0.000000
										CHANNELS 3 Xrotation Yrotation Zrotation
										JOINT RightHandIndex3
										{
											OFFSET -5.337898 0.000000 0.000000
											CHANNELS 3 Xrotation Yrotation Zrotation
											JOINT RightHandIndex4
											{
												OFFSET -4.409401 0.000000 0.000000
												CHANNELS 3 Xrotation Yrotation Zrotation
												End Site
												{
													OFFSET 0.000000 4.409363 0.014408
												}
											}
										}
									}
								}
								JOINT RightHandMiddle1
								{
									OFFSET -23.810097 0.000000 0.000000
									CHANNELS 3 Xrotation Yrotation Zrotation
									JOINT RightHandMiddle2
									{
										OFFSET -7.176498 0.000000 0.000000
										CHANNELS 3 Xrotation Yrotation Zrotation
										JOINT RightHandMiddle3
										{
											OFFSET -6.774902 0.000000 0.000000
											CHANNELS 3 Xrotation Yrotation Zrotation
											JOINT RightHandMiddle4
											{
												OFFSET -5.403328 0.000000 0.000000
												CHANNELS 3 Xrotation Yrotation Zrotation
												End Site
												{
													OFFSET 0.027702 5.403244 0.017457
												}
											}
										}
									}
								}
								JOINT RightHandRing1
								{
									OFFSET -22.908302 -0.839325 -6.020576
									CHANNELS 3 Xrotation Yrotation Zrotation
									JOINT RightHandRing2
									{
										OFFSET -6.337502 0.000000 0.000000
										CHANNELS 3 Xrotation Yrotation Zrotation
										JOINT RightHandRing3
										{
											OFFSET -5.779297 0.000000 0.000000
											CHANNELS 3 Xrotation Yrotation Zrotation
											JOINT RightHandRing4
											{
												OFFSET -4.965698 0.000000 0.000000
												CHANNELS 3 Xrotation Yrotation Zrotation
												End Site
												{
													OFFSET 0.000000 4.965668 0.016226
												}
											}
										}
									}
								}
								JOINT RightHandPinky1
								{
									OFFSET -20.037003 -1.530334 -10.950259
									CHANNELS 3 Xrotation Yrotation Zrotation
									JOINT RightHandPinky2
									{
										OFFSET -5.254700 0.000000 0.000000
										CHANNELS 3 Xrotation Yrotation Zrotation
										JOINT RightHandPinky3
										{
											OFFSET -4.810204 0.000000 0.000000
											CHANNELS 3 Xrotation Yrotation Zrotation
											JOINT RightHandPinky4
											{
												OFFSET -3.647202 0.000000 0.000000
												CHANNELS 3 Xrotation Yrotation Zrotation
												End Site
												{
													OFFSET 0.000000 3.647186 0.011917
												}
											}
										}
									}
								}
							}
						}
					}
				}
			}
		}
	}
	JOINT LeftUpLeg
	{
		OFFSET 15.427100 -6.655098 0.678600
		CHANNELS 3 Xrotation Yrotation Zrotation
		JOINT LeftLeg
		{
			OFFSET 4.081073 -39.591068 13.024000
			CHANNELS 3 Xrotation Yrotation Zrotation
			JOINT LeftFoot
			{
				OFFSET -4.081074 -37.707932 -15.979700
				CHANNELS 3 Xrotation Yrotation Zrotation
				JOINT LeftToeBase
				{
					OFFSET 5.346399 -15.068900 20.645000
					CHANNELS 3 Xrotation Yrotation Zrotation
					JOINT LeftToe_End
					{
						OFFSET 2.754700 0.931300 11.300900
						CHANNELS 3 Xrotation Yrotation Zrotation
						End Site
						{
							OFFSET 0.000000 11.669021 0.000000
						}
					}
				}
			}
		}
	}
	JOINT RightUpLeg
	{
		OFFSET -15.569500 -6.655098 0.678600
		CHANNELS 3 Xrotation Yrotation Zrotation
		JOINT RightLeg
		{
			OFFSET -4.081825 -39.591045 13.023800
			CHANNELS 3 Xrotation Yrotation Zrotation
			JOINT RightFoot
			{
				OFFSET 4.081824 -37.707954 -15.979600
				CHANNELS 3 Xrotation Yrotation Zrotation
				JOINT RightToeBase
				{
					OFFSET -5.346400 -15.068900 20.645000
					CHANNELS 3 Xrotation Yrotation Zrotation
					JOINT RightToe_End
					{
						OFFSET -2.754700 0.931300 11.300900
						CHANNELS 3 Xrotation Yrotation Zrotation
						End Site
						{
							OFFSET 0.000000 11.669021 0.000000
						}
					}
				}
			}
		}
	}
}
MOTION
Frames: 5
Frame Time: 0.033333
9.461582 78.594383 -1.922815 15.667916 -55.342704 7.613342 9.056324 1.143434 -2.843165 17.930913 3.150885 -1.583483 17.965146 2.950466 -1.537585 -12.970288 6.576340 -8.924511 -16.058856 19.407578 -8.336056 -0.000002 0.000000 0.000000 0.337415 0.734783 -1.176897 -49.366794 2.933531 -44.030067 0.000069 -103.160274 0.000066 -12.468305 0.232905 1.422468 -6.747707 3.075037 19.705623 3.939061 7.948715 0.746808 -0.579490 1.575003 2.538705 0.000001 -0.000000 -0.000002 0.039121 0.734386 -6.097227 0.039093 0.734396 -6.097245 0.039148 0.734384 -6.097227 0.000002 -0.000000 0.000000 0.037388 0.718046 -5.961047 0.053220 0.856232 -7.113881 0.056162 0.879482 -7.308063 0.000002 0.000000 0.000000 0.055366 0.873260 -7.256024 0.078044 1.035852 -8.616827 0.082720 1.066273 -8.871977 0.000000 0.000000 -0.000000 0.810916 5.216429 -9.719451 0.102005 -2.832136 -10.693146 0.109069 1.223117 -10.190428 -0.000001 -0.000002 -0.000000 -1.640913 -14.852439 -4.203249 -75.398069 39.122832 97.936143 0.000869 95.377882 -0.000879 21.169814 8.198826 11.747321 -0.218067 -8.294425 -20.435424 4.637194 -8.634124 -0.225407 -1.273760 0.137313 -2.094877 0.000006 0.000002 -0.000000 0.023845 -0.576498 4.736080 0.023842 -0.576501 4.736098 0.023842 -0.576483 4.736084 0.000002 -0.000001 -0.000001 0.007556 -0.324540 2.663979 0.048654 -0.822819 6.768013 0.060331 -0.915857 7.537582 -0.000005 0.000001 0.000000 0.001495 -0.144290 1.183970 0.096086 -1.154260 9.516449 0.130117 -1.341561 11.079260 -0.000002 -0.000001 -0.000002 0.000000 0.000000 0.000001 0.219955 -1.738401 14.420766 0.219951 -1.738398 14.420739 0.000001 0.000000 -0.000003 -43.403175 -0.568276 30.266358 48.391737 -6.833677 4.406658 -8.768041 4.216142 -22.662615 -6.963733 0.000007 -0.000001 0.000000 0.000000 0.000000 -37.106543 -2.732276 -18.391584 44.664308 9.943740 -0.910599 -15.392846 -3.128811 11.284669 -4.646773 0.000002 0.000005 -0.000000 0.000001 0.000000 
8.735618 79.267220 -1.990868 12.958265 -55.635985 6.321053 8.686248 1.190169 -2.726691 17.213632 3.082255 -1.465707 17.245608 2.898554 -1.425837 -11.967384 6.583959 -8.441510 -15.631180 20.659463 -8.122242 0.000001 0.000001 -0.000001 0.369458 0.592420 -1.462582 -48.272198 4.525534 -44.555848 0.000070 -103.740185 0.000049 -12.538475 0.248298 1.374275 -6.747712 3.075038 19.705632 3.939057 7.948713 0.746809 -0.579486 1.575003 2.538710 -0.000000 -0.000001 -0.000001 0.039114 0.734387 -6.097226 0.039095 0.734398 -6.097245 0.039150 0.734383 -6.097227 0.000001 0.000000 -0.000002 0.037380 0.718046 -5.961048 0.053219 0.856230 -7.113879 0.056167 0.879482 -7.308068 0.000001 -0.000001 0.000001 0.055363 0.873260 -7.256028 0.078043 1.035851 -8.616827 0.082716 1.066276 -8.871973 0.000002 0.000001 0.000002 0.810908 5.216430 -9.719454 0.102007 -2.832135 -10.693145 0.109071 1.223116 -10.190429 0.000002 0.000000 -0.000000 -1.783437 -15.633161 -4.479276 -75.805039 40.833777 98.580305 0.000138 95.350636 -0.000179 20.957966 7.670529 11.065108 -0.218070 -8.294425 -20.435426 4.637192 -8.634124 -0.225407 -1.273760 0.137312 -2.094879 -0.000001 -0.000001 -0.000001 0.023845 -0.576498 4.736079 0.023842 -0.576501 4.736098 0.023838 -0.576485 4.736082 -0.000005 -0.000000 0.000001 0.007556 -0.324540 2.663979 0.048660 -0.822820 6.768013 0.060332 -0.915857 7.537583 0.000001 -0.000001 0.000002 0.001498 -0.144291 1.183970 0.096084 -1.154259 9.516449 0.130118 -1.341561 11.079261 0.000000 -0.000000 -0.000001 0.000001 -0.000001 -0.000000 0.219955 -1.738402 14.420766 0.219950 -1.738397 14.420737 0.000001 -0.000001 -0.000002 -40.400484 1.151781 30.182206 46.359841 -7.450805 3.900130 -8.549666 4.172729 -22.670904 -6.952763 -0.000013 0.000009 0.000000 -0.000002 -0.000000 -35.054337 -3.106036 -18.644554 44.429469 10.141047 -1.455091 -15.701022 -3.008309 11.018699 -4.734559 0.000016 0.000005 -0.000001 0.000001 -0.000000 
7.866200 80.137802 -1.957784 10.047069 -56.012230 4.991830 8.131566 1.239208 -2.531727 16.124289 3.024541 -1.223999 16.153773 2.862427 -1.190937 -10.619641 6.560807 -7.883786 -14.246078 21.807343 -8.216117 -0.000001 -0.000001 0.000001 0.385439 0.620241 -1.776317 -46.568056 6.139830 -45.181998 -0.000005 -103.820289 0.000002 -12.459452 0.237700 1.391765 -6.747708 3.075038 19.705630 3.939061 7.948712 0.746805 -0.579490 1.575002 2.538704 -0.000001 -0.000000 -0.000001 0.039118 0.734387 -6.097225 0.039092 0.734396 -6.097242 0.039150 0.734386 -6.097224 0.000000 0.000000 0.000000 0.037385 0.718044 -5.961045 0.053220 0.856230 -7.113878 0.056163 0.879484 -7.308063 -0.000001 -0.000001 0.000000 0.055366 0.873261 -7.256023 0.078043 1.035849 -8.616833 0.082720 1.066275 -8.871974 0.000000 -0.000001 -0.000001 0.810913 5.216433 -9.719448 0.102004 -2.832137 -10.693143 0.109074 1.223119 -10.190430 -0.000002 -0.000001 0.000001 -1.986438 -16.748957 -4.831527 -77.075973 42.854318 100.210664 0.000352 95.447085 -0.000371 20.857726 6.859265 10.030450 -0.218066 -8.294425 -20.435421 4.637190 -8.634125 -0.225406 -1.273761 0.137312 -2.094878 -0.000001 -0.000001 0.000002 0.023847 -0.576500 4.736079 0.023840 -0.576501 4.736098 0.023845 -0.576484 4.736083 -0.000001 0.000001 0.000001 0.007560 -0.324540 2.663979 0.048656 -0.822818 6.768012 0.060326 -0.915858 7.537582 -0.000000 -0.000001 0.000001 0.001503 -0.144290 1.183970 0.096079 -1.154258 9.516448 0.130117 -1.341562 11.079261 -0.000002 0.000001 0.000001 0.000002 -0.000000 0.000000 0.219961 -1.738401 14.420765 0.219942 -1.738396 14.420739 0.000000 -0.000001 -0.000001 -36.587360 3.175940 29.810569 43.690401 -7.748977 3.377024 -8.840920 4.188719 -22.461391 -6.643036 0.000005 0.000004 -0.000000 -0.000000 0.000000 -32.621253 -3.691615 -19.107738 43.788483 9.989602 -2.052054 -16.136511 -2.309535 10.832532 -4.692920 0.000017 0.000005 -0.000000 -0.000001 0.000000 
6.916324 81.086174 -1.820671 6.955102 -56.458436 3.503692 7.480153 1.291874 -2.261515 14.837396 2.971480 -0.887841 14.864056 2.833719 -0.861427 -9.046697 6.522610 -7.217262 -12.163714 23.043400 -8.796347 -0.000002 0.000001 -0.000000 0.383547 0.806581 -2.057284 -44.701392 7.635429 -45.630458 -0.000115 -103.519952 -0.000133 -12.318343 0.217259 1.434273 -6.747712 3.075038 19.705623 3.939058 7.948715 0.746806 -0.579486 1.575004 2.538707 -0.000000 0.000000 0.000000 0.039116 0.734386 -6.097227 0.039096 0.734397 -6.097248 0.039149 0.734383 -6.097227 0.000002 -0.000001 -0.000002 0.037383 0.718047 -5.961050 0.053219 0.856231 -7.113876 0.056162 0.879484 -7.308064 0.000003 0.000001 0.000001 0.055365 0.873259 -7.256031 0.078045 1.035851 -8.616830 0.082719 1.066277 -8.871978 -0.000003 0.000001 -0.000000 0.810913 5.216431 -9.719455 0.102011 -2.832136 -10.693144 0.109069 1.223118 -10.190433 -0.000000 0.000001 0.000001 -2.181444 -17.886116 -5.093241 -79.046906 44.977045 102.265854 0.000467 95.587842 -0.000519 20.595336 6.271798 9.073418 -0.218071 -8.294425 -20.435427 4.637199 -8.634122 -0.225404 -1.273762 0.137314 -2.094876 0.000001 -0.000001 -0.000000 0.023846 -0.576497 4.736078 0.023839 -0.576502 4.736098 0.023843 -0.576484 4.736085 -0.000002 -0.000000 -0.000001 0.007555 -0.324538 2.663978 0.048655 -0.822819 6.768011 0.060323 -0.915856 7.537581 -0.000003 -0.000001 -0.000000 0.001499 -0.144290 1.183970 0.096083 -1.154258 9.516449 0.130121 -1.341563 11.079260 -0.000002 0.000001 -0.000000 0.000000 0.000000 -0.000000 0.219950 -1.738401 14.420763 0.219942 -1.738399 14.420737 0.000001 0.000001 -0.000001 -32.335321 5.260992 29.252956 40.726516 -7.842228 2.910679 -9.209880 4.234306 -22.327993 -6.376834 -0.000010 0.000006 -0.000000 0.000004 0.000000 -29.962261 -4.510531 -19.692117 42.855861 9.836822 -2.598283 -16.625025 -1.396854 10.608704 -4.549409 0.000021 0.000003 -0.000000 -0.000001 0.000000 
6.070355 81.912872 -1.630637 4.293312 -56.828967 2.156184 6.880552 1.341360 -1.998910 13.650383 2.936882 -0.568195 13.674472 2.820829 -0.547255 -7.577671 6.481668 -6.538165 -10.145581 24.265965 -9.552829 -0.000000 0.000001 -0.000000 0.376097 1.018004 -2.264331 -43.137153 8.749425 -45.703159 0.000069 -103.238883 0.000055 -12.179899 0.195895 1.483850 -6.747707 3.075034 19.705623 3.939058 7.948712 0.746807 -0.579487 1.575003 2.538706 0.000002 0.000001 -0.000000 0.039117 0.734384 -6.097228 0.039094 0.734396 -6.097249 0.039150 0.734388 -6.097227 0.000000 0.000000 0.000001 0.037382 0.718044 -5.961049 0.053222 0.856231 -7.113876 0.056162 0.879481 -7.308068 -0.000003 0.000001 0.000003 0.055364 0.873257 -7.256031 0.078042 1.035852 -8.616825 0.082721 1.066274 -8.871979 0.000001 -0.000001 -0.000001 0.810909 5.216429 -9.719452 0.102006 -2.832138 -10.693148 0.109071 1.223118 -10.190431 0.000001 -0.000001 -0.000001 -2.359091 -18.985834 -5.273771 -81.128864 46.934690 104.161170 0.001266 95.658384 -0.001283 19.690527 6.280875 8.306005 -0.218063 -8.294427 -20.435424 4.637194 -8.634123 -0.225405 -1.273766 0.137315 -2.094876 -0.000001 0.000004 -0.000002 0.023850 -0.576500 4.736079 0.023841 -0.576501 4.736098 0.023842 -0.576485 4.736085 0.000002 0.000000 0.000000 0.007561 -0.324541 2.663981 0.048658 -0.822818 6.768011 0.060319 -0.915857 7.537585 -0.000001 -0.000002 -0.000001 0.001502 -0.144290 1.183971 0.096084 -1.154260 9.516448 0.130119 -1.341563 11.079262 -0.000001 -0.000001 0.000000 0.000005 -0.000002 0.000001 0.219959 -1.738403 14.420766 0.219946 -1.738400 14.420737 0.000001 -0.000001 -0.000001 -28.663633 6.913610 28.647558 38.202314 -7.790169 2.605509 -9.317636 4.258830 -22.336882 -6.284599 0.000000 -0.000006 0.000000 -0.000000 0.000000 -27.650991 -5.309978 -20.242355 41.941668 9.721242 -3.001808 -16.978329 -0.612576 10.423203 -4.478199 0.000057 0.000008 0.000000 -0.000001 0.000000 
